{
	"patcher" : 	{
		"fileversion" : 1,
		"appversion" : 		{
			"major" : 7,
			"minor" : 1,
			"revision" : 0,
			"architecture" : "x64",
			"modernui" : 1
		}
,
		"rect" : [ 84.0, 129.0, 370.0, 463.0 ],
		"bglocked" : 0,
		"openinpresentation" : 0,
		"default_fontsize" : 12.0,
		"default_fontface" : 0,
		"default_fontname" : "Arial",
		"gridonopen" : 1,
		"gridsize" : [ 15.0, 15.0 ],
		"gridsnaponopen" : 1,
		"objectsnaponopen" : 1,
		"statusbarvisible" : 2,
		"toolbarvisible" : 1,
		"lefttoolbarpinned" : 0,
		"toptoolbarpinned" : 0,
		"righttoolbarpinned" : 0,
		"bottomtoolbarpinned" : 0,
		"toolbars_unpinned_last_save" : 0,
		"tallnewobj" : 0,
		"boxanimatetime" : 200,
		"enablehscroll" : 1,
		"enablevscroll" : 1,
		"devicewidth" : 0.0,
		"description" : "",
		"digest" : "",
		"tags" : "",
		"style" : "",
		"subpatcher_template" : "",
		"boxes" : [ 			{
				"box" : 				{
					"id" : "obj-3",
					"maxclass" : "message",
					"numinlets" : 2,
					"numoutlets" : 1,
					"outlettype" : [ "" ],
					"patching_rect" : [ 91.874329, 260.5, 29.5, 22.0 ],
					"style" : "",
					"text" : "67"
				}

			}
, 			{
				"box" : 				{
					"fontname" : "Arial Black",
					"fontsize" : 9.0,
					"id" : "obj-1",
					"maxclass" : "newobj",
					"numinlets" : 2,
					"numoutlets" : 2,
					"outlettype" : [ "", "" ],
					"patching_rect" : [ 49.374329, 74.5, 60.0, 21.0 ],
					"style" : "",
					"text" : "zl.slice 16"
				}

			}
, 			{
				"box" : 				{
					"comment" : "",
					"id" : "obj-2",
					"maxclass" : "inlet",
					"numinlets" : 0,
					"numoutlets" : 1,
					"outlettype" : [ "" ],
					"patching_rect" : [ 49.374329, 10.0, 30.0, 30.0 ],
					"style" : ""
				}

			}
, 			{
				"box" : 				{
					"fontname" : "Arial Black",
					"fontsize" : 9.0,
					"id" : "obj-308",
					"maxclass" : "newobj",
					"numinlets" : 2,
					"numoutlets" : 1,
					"outlettype" : [ "int" ],
					"patching_rect" : [ 185.040985, 279.0, 29.5, 21.0 ],
					"presentation" : 1,
					"presentation_rect" : [ 391.707672, 534.833313, 437.0, 21.0 ],
					"style" : "",
					"text" : "i",
					"varname" : "Analysis[20]"
				}

			}
, 			{
				"box" : 				{
					"id" : "obj-307",
					"maxclass" : "message",
					"numinlets" : 2,
					"numoutlets" : 1,
					"outlettype" : [ "" ],
					"patching_rect" : [ 272.811493, 361.116211, 29.5, 22.0 ],
					"style" : "",
					"text" : "80"
				}

			}
, 			{
				"box" : 				{
					"id" : "obj-303",
					"maxclass" : "message",
					"numinlets" : 2,
					"numoutlets" : 1,
					"outlettype" : [ "" ],
					"patching_rect" : [ 185.040985, 251.5, 34.0, 22.0 ],
					"style" : "",
					"text" : "73.5"
				}

			}
, 			{
				"box" : 				{
					"id" : "obj-291",
					"linecount" : 2,
					"maxclass" : "message",
					"numinlets" : 2,
					"numoutlets" : 1,
					"outlettype" : [ "" ],
					"patching_rect" : [ 36.874329, 260.5, 29.5, 35.0 ],
					"style" : "",
					"text" : "73.5"
				}

			}
, 			{
				"box" : 				{
					"fontname" : "Arial Black",
					"fontsize" : 9.0,
					"id" : "obj-296",
					"maxclass" : "newobj",
					"numinlets" : 2,
					"numoutlets" : 0,
					"patching_rect" : [ 272.811493, 391.116211, 60.0, 21.0 ],
					"presentation" : 1,
					"presentation_rect" : [ 310.374329, 583.116211, 437.0, 21.0 ],
					"style" : "",
					"text" : "bendout 2",
					"varname" : "Analysis[18]"
				}

			}
, 			{
				"box" : 				{
					"fontname" : "Arial Black",
					"fontsize" : 9.0,
					"id" : "obj-295",
					"maxclass" : "newobj",
					"numinlets" : 3,
					"numoutlets" : 2,
					"outlettype" : [ "float", "float" ],
					"patching_rect" : [ 185.040985, 307.5, 107.0, 21.0 ],
					"style" : "",
					"text" : "makenote 127 3000"
				}

			}
, 			{
				"box" : 				{
					"fontname" : "Arial Black",
					"fontsize" : 9.0,
					"id" : "obj-294",
					"maxclass" : "newobj",
					"numinlets" : 3,
					"numoutlets" : 0,
					"patching_rect" : [ 185.040985, 391.116211, 58.0, 21.0 ],
					"presentation" : 1,
					"presentation_rect" : [ 212.374329, 586.116211, 437.0, 21.0 ],
					"style" : "",
					"text" : "noteout 2",
					"varname" : "Analysis[17]"
				}

			}
, 			{
				"box" : 				{
					"fontname" : "Arial Black",
					"fontsize" : 9.0,
					"id" : "obj-287",
					"maxclass" : "newobj",
					"numinlets" : 2,
					"numoutlets" : 2,
					"outlettype" : [ "bang", "" ],
					"patching_rect" : [ 2.561497, 227.5, 43.0, 21.0 ],
					"style" : "",
					"text" : "sel 0.5"
				}

			}
, 			{
				"box" : 				{
					"fontname" : "Arial Black",
					"fontsize" : 9.0,
					"id" : "obj-280",
					"maxclass" : "newobj",
					"numinlets" : 2,
					"numoutlets" : 1,
					"outlettype" : [ "int" ],
					"patching_rect" : [ 2.561497, 180.5, 32.0, 21.0 ],
					"style" : "",
					"text" : "% 1."
				}

			}
, 			{
				"box" : 				{
					"fontname" : "Arial Black",
					"fontsize" : 9.0,
					"id" : "obj-285",
					"maxclass" : "newobj",
					"numinlets" : 1,
					"numoutlets" : 2,
					"outlettype" : [ "float", "float" ],
					"patching_rect" : [ 49.374329, 180.5, 29.5, 21.0 ],
					"style" : "",
					"text" : "t f f"
				}

			}
, 			{
				"box" : 				{
					"fontname" : "Arial Black",
					"fontsize" : 9.0,
					"id" : "obj-15",
					"maxclass" : "newobj",
					"numinlets" : 1,
					"numoutlets" : 2,
					"outlettype" : [ "float", "int" ],
					"patching_rect" : [ 49.374329, 154.5, 67.0, 21.0 ],
					"style" : "",
					"text" : "unpack 0. 0"
				}

			}
, 			{
				"box" : 				{
					"fontname" : "Arial Black",
					"fontsize" : 9.0,
					"id" : "obj-14",
					"maxclass" : "newobj",
					"numinlets" : 2,
					"numoutlets" : 2,
					"outlettype" : [ "", "" ],
					"patching_rect" : [ 49.374329, 126.5, 108.0, 21.0 ],
					"style" : "",
					"text" : "zl.iter 2"
				}

			}
, 			{
				"box" : 				{
					"fontname" : "Arial Black",
					"fontsize" : 9.0,
					"id" : "obj-13",
					"maxclass" : "newobj",
					"numinlets" : 3,
					"numoutlets" : 2,
					"outlettype" : [ "float", "float" ],
					"patching_rect" : [ 36.874329, 307.5, 107.0, 21.0 ],
					"style" : "",
					"text" : "makenote 127 3000"
				}

			}
, 			{
				"box" : 				{
					"fontname" : "Arial Black",
					"fontsize" : 9.0,
					"id" : "obj-12",
					"maxclass" : "newobj",
					"numinlets" : 3,
					"numoutlets" : 0,
					"patching_rect" : [ 36.874329, 391.116211, 58.0, 21.0 ],
					"presentation" : 1,
					"presentation_rect" : [ 25.374329, 509.116211, 437.0, 21.0 ],
					"style" : "",
					"text" : "noteout 1",
					"varname" : "Analysis[2]"
				}

			}
 ],
		"lines" : [ 			{
				"patchline" : 				{
					"destination" : [ "obj-14", 0 ],
					"disabled" : 0,
					"hidden" : 0,
					"source" : [ "obj-1", 0 ]
				}

			}
, 			{
				"patchline" : 				{
					"destination" : [ "obj-12", 1 ],
					"disabled" : 0,
					"hidden" : 0,
					"midpoints" : [ 134.374329, 354.0, 65.874329, 354.0 ],
					"source" : [ "obj-13", 1 ]
				}

			}
, 			{
				"patchline" : 				{
					"destination" : [ "obj-12", 0 ],
					"disabled" : 0,
					"hidden" : 0,
					"midpoints" : [ 46.374329, 330.0, 46.374329, 330.0 ],
					"source" : [ "obj-13", 0 ]
				}

			}
, 			{
				"patchline" : 				{
					"destination" : [ "obj-15", 0 ],
					"disabled" : 0,
					"hidden" : 0,
					"midpoints" : [ 58.874329, 150.0, 58.874329, 150.0 ],
					"source" : [ "obj-14", 0 ]
				}

			}
, 			{
				"patchline" : 				{
					"destination" : [ "obj-13", 1 ],
					"disabled" : 0,
					"hidden" : 0,
					"midpoints" : [ 106.874329, 177.0, 90.374329, 177.0 ],
					"source" : [ "obj-15", 1 ]
				}

			}
, 			{
				"patchline" : 				{
					"destination" : [ "obj-285", 0 ],
					"disabled" : 0,
					"hidden" : 0,
					"midpoints" : [ 58.874329, 177.0, 58.874329, 177.0 ],
					"source" : [ "obj-15", 0 ]
				}

			}
, 			{
				"patchline" : 				{
					"destination" : [ "obj-295", 1 ],
					"disabled" : 0,
					"hidden" : 0,
					"midpoints" : [ 106.874329, 237.0, 238.540985, 237.0 ],
					"source" : [ "obj-15", 1 ]
				}

			}
, 			{
				"patchline" : 				{
					"destination" : [ "obj-1", 0 ],
					"disabled" : 0,
					"hidden" : 0,
					"source" : [ "obj-2", 0 ]
				}

			}
, 			{
				"patchline" : 				{
					"destination" : [ "obj-287", 0 ],
					"disabled" : 0,
					"hidden" : 0,
					"midpoints" : [ 12.061497, 204.0, 12.061497, 204.0 ],
					"source" : [ "obj-280", 0 ]
				}

			}
, 			{
				"patchline" : 				{
					"destination" : [ "obj-280", 0 ],
					"disabled" : 0,
					"hidden" : 0,
					"midpoints" : [ 58.874329, 204.0, 40.0, 204.0, 40.0, 168.0, 12.061497, 168.0 ],
					"source" : [ "obj-285", 0 ]
				}

			}
, 			{
				"patchline" : 				{
					"destination" : [ "obj-291", 1 ],
					"disabled" : 0,
					"hidden" : 0,
					"midpoints" : [ 69.374329, 204.0, 56.874329, 204.0 ],
					"source" : [ "obj-285", 1 ]
				}

			}
, 			{
				"patchline" : 				{
					"destination" : [ "obj-303", 1 ],
					"disabled" : 0,
					"hidden" : 0,
					"midpoints" : [ 69.374329, 237.0, 209.540985, 237.0 ],
					"source" : [ "obj-285", 1 ]
				}

			}
, 			{
				"patchline" : 				{
					"destination" : [ "obj-291", 0 ],
					"disabled" : 0,
					"hidden" : 0,
					"midpoints" : [ 36.061497, 255.0, 46.374329, 255.0 ],
					"source" : [ "obj-287", 1 ]
				}

			}
, 			{
				"patchline" : 				{
					"destination" : [ "obj-303", 0 ],
					"disabled" : 0,
					"hidden" : 0,
					"midpoints" : [ 12.061497, 249.0, 170.0, 249.0, 170.0, 237.0, 194.540985, 237.0 ],
					"source" : [ "obj-287", 0 ]
				}

			}
, 			{
				"patchline" : 				{
					"destination" : [ "obj-13", 0 ],
					"disabled" : 0,
					"hidden" : 0,
					"midpoints" : [ 46.374329, 285.0, 46.374329, 285.0 ],
					"source" : [ "obj-291", 0 ]
				}

			}
, 			{
				"patchline" : 				{
					"destination" : [ "obj-294", 1 ],
					"disabled" : 0,
					"hidden" : 0,
					"midpoints" : [ 282.540985, 345.0, 214.040985, 345.0 ],
					"source" : [ "obj-295", 1 ]
				}

			}
, 			{
				"patchline" : 				{
					"destination" : [ "obj-294", 0 ],
					"disabled" : 0,
					"hidden" : 0,
					"midpoints" : [ 194.540985, 330.0, 194.540985, 330.0 ],
					"source" : [ "obj-295", 0 ]
				}

			}
, 			{
				"patchline" : 				{
					"destination" : [ "obj-307", 0 ],
					"disabled" : 0,
					"hidden" : 0,
					"source" : [ "obj-295", 1 ]
				}

			}
, 			{
				"patchline" : 				{
					"destination" : [ "obj-13", 0 ],
					"disabled" : 0,
					"hidden" : 0,
					"source" : [ "obj-3", 0 ]
				}

			}
, 			{
				"patchline" : 				{
					"destination" : [ "obj-308", 0 ],
					"disabled" : 0,
					"hidden" : 0,
					"midpoints" : [ 194.540985, 276.0, 194.540985, 276.0 ],
					"source" : [ "obj-303", 0 ]
				}

			}
, 			{
				"patchline" : 				{
					"destination" : [ "obj-296", 0 ],
					"disabled" : 0,
					"hidden" : 0,
					"source" : [ "obj-307", 0 ]
				}

			}
, 			{
				"patchline" : 				{
					"destination" : [ "obj-295", 0 ],
					"disabled" : 0,
					"hidden" : 0,
					"midpoints" : [ 194.540985, 303.0, 194.540985, 303.0 ],
					"source" : [ "obj-308", 0 ]
				}

			}
 ],
		"styles" : [ 			{
				"name" : "comment_font_viewer",
				"default" : 				{
					"textcolor" : [ 1.0, 1.0, 1.0, 1.0 ],
					"fontsize" : [ 12.0 ],
					"fontname" : [ "Gill Sans" ]
				}
,
				"parentstyle" : "",
				"multi" : 0
			}
, 			{
				"name" : "comment_viewer_normal",
				"default" : 				{
					"textcolor" : [ 1.0, 1.0, 1.0, 1.0 ],
					"fontsize" : [ 10.0 ],
					"fontname" : [ "Arial" ]
				}
,
				"parentstyle" : "",
				"multi" : 0
			}
, 			{
				"name" : "panel_blue_grad",
				"default" : 				{
					"bgfillcolor" : 					{
						"type" : "gradient",
						"color1" : [ 0.0, 0.078431, 0.321569, 1.0 ],
						"color2" : [ 0.086275, 0.309804, 0.52549, 1.0 ],
						"color" : [ 0.290196, 0.309804, 0.301961, 1.0 ],
						"angle" : -90.0,
						"proportion" : 0.39
					}

				}
,
				"parentstyle" : "",
				"multi" : 0
			}
 ]
	}

}
